<mxfile host="app.diagrams.net" modified="2024-01-12T19:41:57.186Z" agent="Mozilla/5.0 (Windows NT 10.0; Win64; x64) AppleWebKit/537.36 (KHTML, like Gecko) Chrome/120.0.0.0 Safari/537.36" etag="Ym1uSTYrMbJYaa91TRNd" version="22.1.18" type="github">
  <diagram id="C5RBs43oDa-KdzZeNtuy" name="Page-1">
    <mxGraphModel dx="1495" dy="980" grid="1" gridSize="10" guides="1" tooltips="1" connect="1" arrows="1" fold="1" page="1" pageScale="1" pageWidth="827" pageHeight="1169" math="0" shadow="0">
      <root>
        <mxCell id="WIyWlLk6GJQsqaUBKTNV-0" />
        <mxCell id="WIyWlLk6GJQsqaUBKTNV-1" parent="WIyWlLk6GJQsqaUBKTNV-0" />
        <mxCell id="rIcSVM6TlLUHGI_PJYWs-0" style="edgeStyle=orthogonalEdgeStyle;rounded=0;orthogonalLoop=1;jettySize=auto;html=1;exitX=0.5;exitY=1;exitDx=0;exitDy=0;entryX=0.5;entryY=0;entryDx=0;entryDy=0;" edge="1" parent="WIyWlLk6GJQsqaUBKTNV-1" source="rIcSVM6TlLUHGI_PJYWs-1" target="rIcSVM6TlLUHGI_PJYWs-3">
          <mxGeometry relative="1" as="geometry" />
        </mxCell>
        <mxCell id="rIcSVM6TlLUHGI_PJYWs-1" value="CREAR CLASS terminales" style="rounded=1;whiteSpace=wrap;html=1;fontSize=12;glass=0;strokeWidth=1;shadow=0;" vertex="1" parent="WIyWlLk6GJQsqaUBKTNV-1">
          <mxGeometry x="67.5" width="120" height="40" as="geometry" />
        </mxCell>
        <mxCell id="rIcSVM6TlLUHGI_PJYWs-2" style="edgeStyle=orthogonalEdgeStyle;rounded=0;orthogonalLoop=1;jettySize=auto;html=1;exitX=0.5;exitY=1;exitDx=0;exitDy=0;entryX=0.5;entryY=0;entryDx=0;entryDy=0;" edge="1" parent="WIyWlLk6GJQsqaUBKTNV-1" source="rIcSVM6TlLUHGI_PJYWs-3" target="rIcSVM6TlLUHGI_PJYWs-5">
          <mxGeometry relative="1" as="geometry" />
        </mxCell>
        <mxCell id="rIcSVM6TlLUHGI_PJYWs-3" value="CREAR METODO POST Insertar_Terminales" style="rounded=1;whiteSpace=wrap;html=1;" vertex="1" parent="WIyWlLk6GJQsqaUBKTNV-1">
          <mxGeometry x="62.5" y="70" width="130" height="50" as="geometry" />
        </mxCell>
        <mxCell id="rIcSVM6TlLUHGI_PJYWs-4" value="" style="edgeStyle=orthogonalEdgeStyle;rounded=0;orthogonalLoop=1;jettySize=auto;html=1;" edge="1" parent="WIyWlLk6GJQsqaUBKTNV-1" source="rIcSVM6TlLUHGI_PJYWs-5" target="rIcSVM6TlLUHGI_PJYWs-8">
          <mxGeometry relative="1" as="geometry" />
        </mxCell>
        <mxCell id="rIcSVM6TlLUHGI_PJYWs-5" value="CREAR METODO RegistraTerminal EN Metodos.cs" style="rounded=1;whiteSpace=wrap;html=1;" vertex="1" parent="WIyWlLk6GJQsqaUBKTNV-1">
          <mxGeometry x="62.5" y="150" width="130" height="50" as="geometry" />
        </mxCell>
        <mxCell id="rIcSVM6TlLUHGI_PJYWs-6" value="INICIO" style="strokeWidth=2;html=1;shape=mxgraph.flowchart.start_2;whiteSpace=wrap;" vertex="1" parent="WIyWlLk6GJQsqaUBKTNV-1">
          <mxGeometry x="102.5" y="230" width="50" height="50" as="geometry" />
        </mxCell>
        <mxCell id="rIcSVM6TlLUHGI_PJYWs-7" value="" style="edgeStyle=orthogonalEdgeStyle;rounded=0;orthogonalLoop=1;jettySize=auto;html=1;" edge="1" parent="WIyWlLk6GJQsqaUBKTNV-1" source="rIcSVM6TlLUHGI_PJYWs-8" target="rIcSVM6TlLUHGI_PJYWs-10">
          <mxGeometry relative="1" as="geometry" />
        </mxCell>
        <mxCell id="rIcSVM6TlLUHGI_PJYWs-8" value="res = &quot;&quot;,&lt;br&gt;version = 0,&lt;br&gt;dateCreated = DateTime.Now&lt;br&gt;lastUpdate = DateTime.Now" style="rounded=0;whiteSpace=wrap;html=1;" vertex="1" parent="WIyWlLk6GJQsqaUBKTNV-1">
          <mxGeometry x="40" y="300" width="175" height="60" as="geometry" />
        </mxCell>
        <mxCell id="rIcSVM6TlLUHGI_PJYWs-9" style="edgeStyle=orthogonalEdgeStyle;rounded=0;orthogonalLoop=1;jettySize=auto;html=1;exitX=0.5;exitY=1;exitDx=0;exitDy=0;exitPerimeter=0;entryX=0.5;entryY=0;entryDx=0;entryDy=0;" edge="1" parent="WIyWlLk6GJQsqaUBKTNV-1" source="rIcSVM6TlLUHGI_PJYWs-10" target="rIcSVM6TlLUHGI_PJYWs-26">
          <mxGeometry relative="1" as="geometry" />
        </mxCell>
        <mxCell id="rIcSVM6TlLUHGI_PJYWs-10" value="try catch" style="strokeWidth=2;html=1;shape=mxgraph.flowchart.decision;whiteSpace=wrap;" vertex="1" parent="WIyWlLk6GJQsqaUBKTNV-1">
          <mxGeometry x="77.5" y="370" width="100" height="100" as="geometry" />
        </mxCell>
        <mxCell id="rIcSVM6TlLUHGI_PJYWs-11" value="return res = ex.Message" style="strokeWidth=2;html=1;shape=mxgraph.flowchart.start_1;whiteSpace=wrap;" vertex="1" parent="WIyWlLk6GJQsqaUBKTNV-1">
          <mxGeometry x="520" y="390" width="90" height="60" as="geometry" />
        </mxCell>
        <mxCell id="rIcSVM6TlLUHGI_PJYWs-12" style="edgeStyle=orthogonalEdgeStyle;rounded=0;orthogonalLoop=1;jettySize=auto;html=1;exitX=1;exitY=0.5;exitDx=0;exitDy=0;exitPerimeter=0;entryX=0;entryY=0.5;entryDx=0;entryDy=0;entryPerimeter=0;" edge="1" parent="WIyWlLk6GJQsqaUBKTNV-1" source="rIcSVM6TlLUHGI_PJYWs-10" target="rIcSVM6TlLUHGI_PJYWs-11">
          <mxGeometry relative="1" as="geometry" />
        </mxCell>
        <mxCell id="rIcSVM6TlLUHGI_PJYWs-13" value="CREAR LISTAS &#39;queryList&#39; Y &#39;listParemeter&#39;" style="shape=parallelogram;html=1;strokeWidth=2;perimeter=parallelogramPerimeter;whiteSpace=wrap;rounded=1;arcSize=12;size=0.23;" vertex="1" parent="WIyWlLk6GJQsqaUBKTNV-1">
          <mxGeometry x="48.75" y="585" width="140" height="60" as="geometry" />
        </mxCell>
        <mxCell id="rIcSVM6TlLUHGI_PJYWs-14" style="edgeStyle=orthogonalEdgeStyle;rounded=0;orthogonalLoop=1;jettySize=auto;html=1;exitX=0.5;exitY=1;exitDx=0;exitDy=0;entryX=0.5;entryY=0;entryDx=0;entryDy=0;" edge="1" parent="WIyWlLk6GJQsqaUBKTNV-1" source="rIcSVM6TlLUHGI_PJYWs-15" target="rIcSVM6TlLUHGI_PJYWs-17">
          <mxGeometry relative="1" as="geometry" />
        </mxCell>
        <mxCell id="rIcSVM6TlLUHGI_PJYWs-15" value="INSERT INTO sales_terminal" style="shape=internalStorage;whiteSpace=wrap;html=1;dx=15;dy=15;rounded=1;arcSize=8;strokeWidth=2;" vertex="1" parent="WIyWlLk6GJQsqaUBKTNV-1">
          <mxGeometry x="57.5" y="750" width="142.5" height="70" as="geometry" />
        </mxCell>
        <mxCell id="rIcSVM6TlLUHGI_PJYWs-16" value="" style="edgeStyle=orthogonalEdgeStyle;rounded=0;orthogonalLoop=1;jettySize=auto;html=1;" edge="1" parent="WIyWlLk6GJQsqaUBKTNV-1" source="rIcSVM6TlLUHGI_PJYWs-17" target="rIcSVM6TlLUHGI_PJYWs-19">
          <mxGeometry relative="1" as="geometry" />
        </mxCell>
        <mxCell id="rIcSVM6TlLUHGI_PJYWs-17" value="CREAR ARRAY DE PARAMETROS &#39;Npgsql&#39;" style="shape=parallelogram;html=1;strokeWidth=2;perimeter=parallelogramPerimeter;whiteSpace=wrap;rounded=1;arcSize=12;size=0.23;" vertex="1" parent="WIyWlLk6GJQsqaUBKTNV-1">
          <mxGeometry x="45" y="850" width="140" height="60" as="geometry" />
        </mxCell>
        <mxCell id="rIcSVM6TlLUHGI_PJYWs-18" value="" style="edgeStyle=orthogonalEdgeStyle;rounded=0;orthogonalLoop=1;jettySize=auto;html=1;" edge="1" parent="WIyWlLk6GJQsqaUBKTNV-1" source="rIcSVM6TlLUHGI_PJYWs-19" target="rIcSVM6TlLUHGI_PJYWs-20">
          <mxGeometry relative="1" as="geometry" />
        </mxCell>
        <mxCell id="rIcSVM6TlLUHGI_PJYWs-19" value="AÃ‘ADE LA CONSULTA SQL Y LOS PARAMETROS A LAS LISTAS &#39;queryList&#39; Y &#39;listParemeter&#39;" style="rounded=1;whiteSpace=wrap;html=1;absoluteArcSize=1;arcSize=14;strokeWidth=2;" vertex="1" parent="WIyWlLk6GJQsqaUBKTNV-1">
          <mxGeometry x="40" y="940" width="150" height="100" as="geometry" />
        </mxCell>
        <mxCell id="rIcSVM6TlLUHGI_PJYWs-20" value="LLAMA A LA FUNCION &#39;mandaQryInsert&#39; CON LA CONSULTA Y PARAMETROS" style="rounded=1;whiteSpace=wrap;html=1;absoluteArcSize=1;arcSize=14;strokeWidth=2;" vertex="1" parent="WIyWlLk6GJQsqaUBKTNV-1">
          <mxGeometry x="30" y="1070" width="170" height="100" as="geometry" />
        </mxCell>
        <mxCell id="rIcSVM6TlLUHGI_PJYWs-21" value="mandaQryInsert" style="strokeWidth=2;html=1;shape=mxgraph.flowchart.decision;whiteSpace=wrap;" vertex="1" parent="WIyWlLk6GJQsqaUBKTNV-1">
          <mxGeometry x="55" y="1190" width="125" height="100" as="geometry" />
        </mxCell>
        <mxCell id="rIcSVM6TlLUHGI_PJYWs-22" value="TRUE" style="strokeWidth=2;html=1;shape=mxgraph.flowchart.display;whiteSpace=wrap;" vertex="1" parent="WIyWlLk6GJQsqaUBKTNV-1">
          <mxGeometry x="300" y="1250" width="100" height="60" as="geometry" />
        </mxCell>
        <mxCell id="rIcSVM6TlLUHGI_PJYWs-23" style="edgeStyle=orthogonalEdgeStyle;rounded=0;orthogonalLoop=1;jettySize=auto;html=1;exitX=1;exitY=0.5;exitDx=0;exitDy=0;exitPerimeter=0;entryX=0.5;entryY=1;entryDx=0;entryDy=0;entryPerimeter=0;" edge="1" parent="WIyWlLk6GJQsqaUBKTNV-1" source="rIcSVM6TlLUHGI_PJYWs-21" target="rIcSVM6TlLUHGI_PJYWs-11">
          <mxGeometry relative="1" as="geometry" />
        </mxCell>
        <mxCell id="rIcSVM6TlLUHGI_PJYWs-24" style="edgeStyle=orthogonalEdgeStyle;rounded=0;orthogonalLoop=1;jettySize=auto;html=1;exitX=0.5;exitY=1;exitDx=0;exitDy=0;exitPerimeter=0;entryX=0;entryY=0.5;entryDx=0;entryDy=0;entryPerimeter=0;" edge="1" parent="WIyWlLk6GJQsqaUBKTNV-1" source="rIcSVM6TlLUHGI_PJYWs-21" target="rIcSVM6TlLUHGI_PJYWs-22">
          <mxGeometry relative="1" as="geometry">
            <mxPoint x="230.00000000000023" y="1120.0000000000002" as="targetPoint" />
            <Array as="points">
              <mxPoint x="118" y="1310" />
              <mxPoint x="200" y="1310" />
              <mxPoint x="200" y="1280" />
            </Array>
          </mxGeometry>
        </mxCell>
        <mxCell id="rIcSVM6TlLUHGI_PJYWs-25" style="edgeStyle=orthogonalEdgeStyle;rounded=0;orthogonalLoop=1;jettySize=auto;html=1;exitX=0.5;exitY=1;exitDx=0;exitDy=0;entryX=0.5;entryY=0;entryDx=0;entryDy=0;entryPerimeter=0;" edge="1" parent="WIyWlLk6GJQsqaUBKTNV-1" source="rIcSVM6TlLUHGI_PJYWs-20" target="rIcSVM6TlLUHGI_PJYWs-21">
          <mxGeometry relative="1" as="geometry" />
        </mxCell>
        <mxCell id="rIcSVM6TlLUHGI_PJYWs-26" value="validarTerminalRegistrada(id, terminal_id,terminal_name)" style="verticalLabelPosition=bottom;verticalAlign=top;html=1;shape=process;whiteSpace=wrap;rounded=1;size=0.14;arcSize=6;" vertex="1" parent="WIyWlLk6GJQsqaUBKTNV-1">
          <mxGeometry x="77.5" y="500" width="100" height="20" as="geometry" />
        </mxCell>
        <mxCell id="rIcSVM6TlLUHGI_PJYWs-27" style="edgeStyle=orthogonalEdgeStyle;rounded=0;orthogonalLoop=1;jettySize=auto;html=1;entryX=0.563;entryY=0.083;entryDx=0;entryDy=0;entryPerimeter=0;" edge="1" parent="WIyWlLk6GJQsqaUBKTNV-1" source="rIcSVM6TlLUHGI_PJYWs-26" target="rIcSVM6TlLUHGI_PJYWs-13">
          <mxGeometry relative="1" as="geometry" />
        </mxCell>
        <mxCell id="rIcSVM6TlLUHGI_PJYWs-28" style="edgeStyle=orthogonalEdgeStyle;rounded=0;orthogonalLoop=1;jettySize=auto;html=1;exitX=0.5;exitY=1;exitDx=0;exitDy=0;exitPerimeter=0;entryX=0.5;entryY=0;entryDx=0;entryDy=0;" edge="1" parent="WIyWlLk6GJQsqaUBKTNV-1" source="rIcSVM6TlLUHGI_PJYWs-29" target="rIcSVM6TlLUHGI_PJYWs-15">
          <mxGeometry relative="1" as="geometry" />
        </mxCell>
        <mxCell id="rIcSVM6TlLUHGI_PJYWs-29" value="buscarTerminal.Length &amp;lt;= 2" style="strokeWidth=2;html=1;shape=mxgraph.flowchart.decision;whiteSpace=wrap;" vertex="1" parent="WIyWlLk6GJQsqaUBKTNV-1">
          <mxGeometry x="90" y="660" width="75" height="70" as="geometry" />
        </mxCell>
        <mxCell id="rIcSVM6TlLUHGI_PJYWs-30" value="&quot;TERMINAL YA SE ENCUENTRA EN NUESTRA BD&quot;" style="strokeWidth=2;html=1;shape=mxgraph.flowchart.start_1;whiteSpace=wrap;" vertex="1" parent="WIyWlLk6GJQsqaUBKTNV-1">
          <mxGeometry x="290" y="662.5" width="120" height="65" as="geometry" />
        </mxCell>
        <mxCell id="rIcSVM6TlLUHGI_PJYWs-31" style="edgeStyle=orthogonalEdgeStyle;rounded=0;orthogonalLoop=1;jettySize=auto;html=1;exitX=0.5;exitY=1;exitDx=0;exitDy=0;entryX=0.5;entryY=0;entryDx=0;entryDy=0;entryPerimeter=0;" edge="1" parent="WIyWlLk6GJQsqaUBKTNV-1" source="rIcSVM6TlLUHGI_PJYWs-13" target="rIcSVM6TlLUHGI_PJYWs-29">
          <mxGeometry relative="1" as="geometry" />
        </mxCell>
        <mxCell id="rIcSVM6TlLUHGI_PJYWs-32" style="edgeStyle=orthogonalEdgeStyle;rounded=0;orthogonalLoop=1;jettySize=auto;html=1;exitX=1;exitY=0.5;exitDx=0;exitDy=0;exitPerimeter=0;entryX=0;entryY=0.5;entryDx=0;entryDy=0;entryPerimeter=0;" edge="1" parent="WIyWlLk6GJQsqaUBKTNV-1" source="rIcSVM6TlLUHGI_PJYWs-29" target="rIcSVM6TlLUHGI_PJYWs-30">
          <mxGeometry relative="1" as="geometry" />
        </mxCell>
      </root>
    </mxGraphModel>
  </diagram>
</mxfile>
